<?xml version="1.0" encoding="UTF-8"?>
<svg width="800" height="450" viewBox="0 0 800 450" xmlns="http://www.w3.org/2000/svg">
  <rect width="800" height="450" fill="hsl(255, 17%, 20%)"/>
  <g transform="translate(400, 225)">
    <g transform="translate(-120, -72.7) scale(10)">
      <path
        d="M 7.2692037,1.2726119e-7 A 7.269225,7.269225 0 0 0 0,7.2692046 7.269225,7.269225 0 0 0 7.2692037,14.538409 7.269225,7.269225 0 0 0 14.538408,7.2692046 7.269225,7.269225 0 0 0 7.2692037,1.2726119e-7 Z m 12.0146323,0 A 7.269225,7.269225 0 0 0 14.209591,2.0895701 a 8.6822937,8.6822937 0 0 1 1.260108,2.3847755 4.7453176,4.7453176 0 0 1 3.814137,-1.9505688 4.7453176,4.7453176 0 0 1 2.925556,1.0091943 l 1.790609,-1.790608 A 7.269225,7.269225 0 0 0 19.283836,1.2726119e-7 Z M 7.2692037,2.5237768 A 4.7453176,4.7453176 0 0 1 12.014434,7.2692046 4.7453176,4.7453176 0 0 1 7.2692037,12.014435 4.7453176,4.7453176 0 0 1 2.5237766,7.2692046 4.7453176,4.7453176 0 0 1 7.2692037,2.5237768 Z m 8.2004953,7.5400892 a 8.6822937,8.6822937 0 0 1 -1.260108,2.384972 7.269225,7.269225 0 0 0 5.074245,2.089571 7.269225,7.269225 0 0 0 4.716165,-1.742561 l -1.798715,-1.798715 a 4.7453176,4.7453176 0 0 1 -2.91745,1.017302 4.7453176,4.7453176 0 0 1 -3.814137,-1.950569 z"
        fill="hsl(254, 17%, 25%)"
      />
    </g>
  </g>
</svg>
